{"title":"E.T.-.20th.Anniversary.Swe.Eng.Audio.DvdRip.XviD-KnÃƒÂ£","uid":6325902,"size":942024704,"categoryP":"video","categoryS":"movies","magnet":"?xt=urn:btih:ee6cbc0fe2c02966c402d995f72ca12a813c6534&amp;dn=E.T.-.20th.Anniversary.Swe.Eng.Audio.DvdRip.XviD-Kn%C3%83%C2%A3&amp;tr=udp%3A%2F%2Ftracker.openbittorrent.com%3A80&amp;tr=udp%3A%2F%2Fopen.demonii.com%3A1337&amp;tr=udp%3A%2F%2Ftracker.coppersurfer.tk%3A6969&amp;tr=udp%3A%2F%2Fexodus.desync.com%3A6969","seeders":0,"leechers":1,"uploader":"Jon.Pson","files":1,"time":1303117533,"description":"Elliot is your normal boy, until one day, when he meets a little lost alien. Elliot decides to keep the alien, in which he gives the name E.T. Elliot works with E.T. in trying to find him a way to get back home. Elliot must make the difficult sacrifice. Whether to help his new friend or to lose him? Whatever the decision is, Elliot must keep him hidden, as someone else is out to look for him.\n\nGeneral\nComplete name                    : E.T.-.20th.Anniversary.Swe.Eng.Audio.DvdRip.XviD-KnÃƒÂ£\\E.T.-.20th.Anniversary.Swe.Eng.Audio.DvdRip.XviD-KnÃƒÂ£.avi\nFormat                           : AVI\nFormat/Info                      : Audio Video Interleave\nFile size                        : 898 MiB\nDuration                         : 1h 55mn\nOverall bit rate                 : 1 092 Kbps\nWriting application              : VirtualDubMod 1.5.4.1 (build 2178/release)\nWriting library                  : VirtualDubMod build 2178/release\n\nVideo\nID                               : 0\nFormat                           : MPEG-4 Visual\nFormat profile                   : Advanced Simple@L5\nFormat settings, BVOP            : Yes\nFormat settings, QPel            : No\nFormat settings, GMC             : No warppoints\nFormat settings, Matrix          : Custom\nCodec ID                         : XVID\nCodec ID/Hint                    : XviD\nDuration                         : 1h 55mn\nBit rate                         : 577 Kbps\nWidth                            : 608 pixels\nHeight                           : 336 pixels\nDisplay aspect ratio             : 16:9\nFrame rate                       : 25.000 fps\nColor space                      : YUV\nChroma subsampling               : 4:2:0\nBit depth                        : 8 bits\nScan type                        : Progressive\nBits/(Pixel*Frame)               : 0.113\nStream size                      : 475 MiB (53%)\nWriting library                  : XviD 1.2.1 (UTC 2008-12-04)\n\nAudio #1\nID                               : 1\nFormat                           : AC-3\nFormat/Info                      : Audio Coding 3\nMode extension                   : CM (complete main)\nCodec ID                         : 2000\nDuration                         : 1h 55mn\nBit rate mode                    : Constant\nBit rate                         : 384 Kbps\nChannel(s)                       : 6 channels\nChannel positions                : Front: L C R, Side: L R, LFE\nSampling rate                    : 48.0 KHz\nBit depth                        : 16 bits\nStream size                      : 316 MiB (35%)\nAlignment                        : Aligned on interleaves\nInterleave, duration             : 96 ms (2.40 video frames)\nInterleave, preload duration     : 96 ms\nLanguage                         : Swedish\n\nAudio #2\nID                               : 2\nFormat                           : MPEG Audio\nFormat version                   : Version 1\nFormat profile                   : Layer 3\nMode                             : Joint stereo\nMode extension                   : MS Stereo\nCodec ID                         : 55\nCodec ID/Hint                    : MP3\nDuration                         : 1h 55mn\nBit rate mode                    : Variable\nBit rate                         : 116 Kbps\nNominal bit rate                 : 128 Kbps\nChannel(s)                       : 2 channels\nSampling rate                    : 48.0 KHz\nStream size                      : 95.2 MiB (11%)\nAlignment                        : Aligned on interleaves\nInterleave, duration             : 24 ms (0.60 video frame)\nInterleave, preload duration     : 159 ms\nWriting library                  : LAME3.98r\nEncoding settings                : -m j -V 4 -q 2 -lowpass 17 --abr 128\nLanguage                         : English\n\n","torrent":{"xt":"urn:btih:ee6cbc0fe2c02966c402d995f72ca12a813c6534","amp;dn":"E.T.-.20th.Anniversary.Swe.Eng.Audio.DvdRip.XviD-Kn%C3%83%C2%A3","amp;tr":["udp%3A%2F%2Ftracker.openbittorrent.com%3A80","udp%3A%2F%2Fopen.demonii.com%3A1337","udp%3A%2F%2Ftracker.coppersurfer.tk%3A6969","udp%3A%2F%2Fexodus.desync.com%3A6969"],"infoHash":"ee6cbc0fe2c02966c402d995f72ca12a813c6534","infoHashBuffer":{"type":"Buffer","data":[238,108,188,15,226,192,41,102,196,2,217,149,247,44,161,42,129,60,101,52]},"announce":[],"urlList":[]}}